<svg id="fbd839f7-34ef-46f7-8df7-3eabd21be975" data-name="Layer 1" xmlns="http://www.w3.org/2000/svg" width="514" height="611.43675" viewBox="0 0 514 611.43675"><circle cx="129" cy="112.43675" r="57" fill="#3f3d56"/><circle cx="456" cy="131.43675" r="57" fill="#3f3d56"/><path d="M800,216.71838a56.99618,56.99618,0,0,0-51.899,33.43817,56.99161,56.99161,0,0,1,89.7981,66.12366A56.99065,56.99065,0,0,0,800,216.71838Z" transform="translate(-343 -144.28162)" fill="#6c63ff"/><path d="M471,197.71838a56.99618,56.99618,0,0,1,51.899,33.43817,56.99161,56.99161,0,0,0-89.7981,66.12366A56.99065,56.99065,0,0,1,471,197.71838Z" transform="translate(-343 -144.28162)" fill="#6c63ff"/><path d="M637,540.71838a147.12018,147.12018,0,1,1-147-147A146.50507,146.50507,0,0,1,637,540.71838Z" transform="translate(-343 -144.28162)" fill="#3f3d56"/><path d="M637,540.71838a146.50507,146.50507,0,0,1-13.21,60.99A174.12072,174.12072,0,0,1,454.53,398.02837,147.12018,147.12018,0,0,1,637,540.71838Z" transform="translate(-343 -144.28162)" fill="#6c63ff"/><circle cx="283" cy="261.43675" r="174" fill="#3f3d56"/><path d="M668.28424,411.6701a56.99942,56.99942,0,0,1,79.62048-11.76959,57.0021,57.0021,0,1,0-79.62048,11.76959Z" transform="translate(-343 -144.28162)" fill="#fff"/><path d="M535.28424,422.6701a56.99942,56.99942,0,0,1,79.62048-11.76959,57.0021,57.0021,0,1,0-79.62048,11.76959Z" transform="translate(-343 -144.28162)" fill="#fff"/><circle cx="230" cy="221.43675" r="21" fill="#3f3d56"/><circle cx="366" cy="205.43675" r="21" fill="#3f3d56"/><circle cx="296" cy="267.43675" r="11" fill="#ff6584"/><path d="M474,723.08941v-48.371H458v48.371a24.00589,24.00589,0,0,0-16,22.62891v.00006h48v-.00006A24.00589,24.00589,0,0,0,474,723.08941Z" transform="translate(-343 -144.28162)" fill="#3f3d56"/><path d="M533,723.08941v-48.371H517v48.371a24.00589,24.00589,0,0,0-16,22.62891v.00006h48v-.00006A24.00589,24.00589,0,0,0,533,723.08941Z" transform="translate(-343 -144.28162)" fill="#3f3d56"/><path d="M554.86224,248.40509c-7.24978-11.67213-12.11946-25.38328-10.61059-39.04057s10.45529-26.98389,23.62645-30.89776,29.48724,4.19458,31.96939,17.70891a111.12764,111.12764,0,0,1,58.87866-49.0366c11.5115-4.05635,26.80946-4.97621,33.46571,5.25428,3.29431,5.06328,3.64668,11.94742,8.05959,16.0724,6.91788,6.46652,18.01131,1.912,27.46474,2.46471,13.29416.77724,23.99614,13.18432,25.67083,26.39545s-4.17661,26.48759-12.81342,36.62387-19.87194,17.65607-30.95343,25.04114" transform="translate(-343 -144.28162)" fill="#3f3d56"/><path d="M658.1277,451.99453c.71609-.75686,1.45552-1.48981,2.2279-2.18939q.51248-.46416,1.04132-.90989.33-.27813.66617-.54861c.38748-.31231.51-.38833.04016-.03958a43.621,43.621,0,0,1,5.35807-3.43006q1.28936-.69232,2.62392-1.2958c.20943-.09464.42028-.18563.6302-.27908-.943.41978-.20357.08648.03881-.01083q.80067-.32144,1.61317-.61177a46.36971,46.36971,0,0,1,6.15624-1.72882c.963-.20047,1.93151-.35572,2.9025-.51071.65372-.10434-.82292.09137-.16434.02306.28767-.02984.57456-.068.86227-.098q.8634-.09,1.72967-.149a48.37288,48.37288,0,0,1,6.24653-.02222c1.0396.06348,2.07405.169,3.10816.29138-1.04285-.12337.15169.0283.51845.08849q.85419.14017,1.70288.31173a45.52465,45.52465,0,0,1,5.99253,1.64078q.7321.25584,1.45474.53761c.26753.10422.53321.21269.79942.32019-.13449-.05431-.87663-.38953-.12484-.04826.94087.4271,1.87335.8668,2.78589,1.35222a44.00866,44.00866,0,0,1,5.36947,3.4225c.51894.381-.58371-.4834-.092-.067.22.18632.4491.36256.67031.54764q.53226.44532,1.04821.90973c.87986.79268,1.72354,1.62567,2.53546,2.48766q1.11213,1.18069,2.13962,2.43733c-.00934-.01143.77165.95673.35615.43465-.34858-.438.14419.19132.22244.29612q.62088.83148,1.2059,1.68888a52.35577,52.35577,0,0,1,3.438,5.83477q.72589,1.432,1.37088,2.903c.09456.21512.42249,1.00975.06729.14495.09618.23416.19226.4683.28641.70331q.35391.88337.68156,1.777a83.66983,83.66983,0,0,1,3.61207,13.44484q.32668,1.7427.59806,3.49512.12162.78171.233,1.565c-.00191-.01344.17153,1.27339.08139.5797-.08025-.61761.05791.46652.07234.58235.30331,2.43549.54307,4.87864.73712,7.32517.38061,4.79876.58421,9.60956.73028,14.42055.37056,12.20526.68641,24.41242,1.02876,36.61851l2.097,74.76405,2.097,74.76405.26031,9.28105a4.5,4.5,0,0,0,9,0l-2.15481-76.8265-2.14034-76.3109-1.0774-38.41325c-.28848-10.28526-.70314-20.56-2.286-30.74231-2.91528-18.75309-11.38515-38.24818-29.492-46.76336-16.91172-7.95315-37.84094-6.10848-52.65777,5.45611a41.37311,41.37311,0,0,0-4.61235,4.18189,4.5,4.5,0,0,0,6.364,6.364Z" transform="translate(-343 -144.28162)" fill="#6c63ff"/><path d="M692,593.71838a5.00588,5.00588,0,0,0-5,5L696.99805,750.653A5.02312,5.02312,0,0,0,702,755.71838h82a5.00589,5.00589,0,0,0,5-5L799.002,598.653A4.99545,4.99545,0,0,0,794,593.71838Z" transform="translate(-343 -144.28162)" fill="#e6e6e6"/><path d="M699.916,601.21838a5.00022,5.00022,0,0,0-4.98829,5.334l9.19434,137a5.01416,5.01416,0,0,0,4.98828,4.666h67.7793a5.01416,5.01416,0,0,0,4.98828-4.666l9.19434-137a5.00022,5.00022,0,0,0-4.98829-5.334Z" transform="translate(-343 -144.28162)" fill="#6c63ff"/><path d="M730,624.71838a2.0026,2.0026,0,0,0-2,2v11a2.0026,2.0026,0,0,0,2,2h17a2.0026,2.0026,0,0,0,2-2v-11a2.0026,2.0026,0,0,0-2-2Z" transform="translate(-343 -144.28162)" fill="#e6e6e6"/><path d="M749,653.71838a2.0026,2.0026,0,0,0-2,2v11a2.0026,2.0026,0,0,0,2,2h17a2.0026,2.0026,0,0,0,2-2v-11a2.0026,2.0026,0,0,0-2-2Z" transform="translate(-343 -144.28162)" fill="#e6e6e6"/><path d="M731,677.71838a2.0026,2.0026,0,0,0-2,2v11a2.0026,2.0026,0,0,0,2,2h17a2.0026,2.0026,0,0,0,2-2v-11a2.0026,2.0026,0,0,0-2-2Z" transform="translate(-343 -144.28162)" fill="#e6e6e6"/><path d="M408.02912,619.87764c5.20361,1.72593,8.86833,6.153,11.91739,10.49261,3.14306,4.47344,6.02393,9.3309,10.31951,12.825a16.86449,16.86449,0,0,0,13.27782,3.99153c4.70985-.70988,8.70249-4.00205,9.41882-8.85849.94328-6.39519-3.53259-12.31424-7.45889-16.86382l-1.06066,2.56066c6.256.67461,11.69494,4.24092,17.42339,6.53652,5.48859,2.19949,11.98079,3.39973,17.46382.53229,4.2071-2.20017,6.8304-6.60175,7.71925-11.16377a22.96256,22.96256,0,0,0-2.1636-14.619c-2.91884-5.96756-7.70514-10.79053-12.34784-15.43525l-1.45942,2.50708c6.90241,1.0365,14.59846,2.00273,20.58757-2.43263a12.205,12.205,0,0,0,4.81252-7.02512,13.57582,13.57582,0,0,0-1.46708-9.1959c-3.14917-6.13321-9.09331-10.4568-14.4222-14.57036a210.26823,210.26823,0,0,0-40.15785-24.41047c-1.73974-.8086-3.26517,1.77657-1.51416,2.59041a211.45547,211.45547,0,0,1,34.77067,20.38121c5.25115,3.797,10.80041,7.71218,15.17627,12.52832,3.71485,4.08863,7.09835,10.34266,3.04126,15.39736-4.77248,5.946-13.40786,4.83868-20.02948,3.84435a1.51338,1.51338,0,0,0-1.45942,2.50707c6.91981,6.92282,15.13773,15.23412,13.93421,25.88856-.45627,4.03926-2.37265,8.16489-5.96714,10.301-4.88613,2.90369-10.99689,1.40912-15.91824-.59856-5.97472-2.43741-11.47953-5.85756-18.02253-6.56311-1.41-.152-1.81833,1.68272-1.06066,2.56066,3.17456,3.67851,6.9826,8.46477,6.70065,13.62256-.23592,4.31562-3.99884,6.89747-8.03407,7.14151-10.26475.62077-15.44711-10.06632-20.65136-17.07432-3.29369-4.43525-7.2023-8.51008-12.571-10.29078-1.83668-.60919-2.62417,2.287-.79752,2.89284Z" transform="translate(-343 -144.28162)" fill="#6c63ff"/></svg>