<svg id="bb6babd7-81b8-4d07-9de5-763bbbeb8b25" data-name="Layer 1" xmlns="http://www.w3.org/2000/svg" width="488" height="692.30649" viewBox="0 0 488 692.30649"><rect y="627.75922" width="488" height="2" fill="#3f3d56"/><path d="M669.61607,296.31051s-20.74023,3.45319-31.39661,1.51634-31.80118,9.05607-31.80118,9.05607L550.541,327.57039S500,368.98078,492.89279,340.12751C488.91247,323.96852,541,310.98078,541,310.98078l91.55538-43.85558L665.868,255.61089Z" transform="translate(-356 -103.84676)" fill="#ffb9b9"/><path d="M673.6063,416.98078l-14.6063,14,2.6063,61s3,80,2,83-19,125-19,125,21,10,40,4c0,0,19-90,19-116l22-91,34,104s2,70,6,93,4,26,4,26,32,9,40,0c0,0-4-118-7-130l-7-143Z" transform="translate(-356 -103.84676)" fill="#2f2e41"/><path d="M652.6063,699.98078s-2-3-8,5-25,23-25,23-52,37-13,39,46-18,46-18,33-6,34-13-4-35-4-35Z" transform="translate(-356 -103.84676)" fill="#2f2e41"/><path d="M771.6063,717.98078s-7,24-5,34-4,47,24,44,19-35,19-35l-9-41Z" transform="translate(-356 -103.84676)" fill="#2f2e41"/><circle cx="376.10629" cy="57.63402" r="33" fill="#ffb9b9"/><path d="M712.6063,178.98078s10,35,2,48,54,2,58-10c0,0-20-22-17-43Z" transform="translate(-356 -103.84676)" fill="#ffb9b9"/><path d="M728.6063,225.98078s27.37433,1.85068,40.68719-13.07466l35.61623,15.2212a18.68494,18.68494,0,0,1,11.04321,20.51017L797.6063,349.98078s8.3937,64,4,107c-3.96955,38.849-148,0-143-33,.53571-3.53571,1.03-7.15178,1.48567-10.7904a851.21717,851.21717,0,0,1,18.20737-96.53992c2.65931-10.86445-4.693-72.66968-4.693-72.66968l44.0177-29.16491S719.6063,225.98078,728.6063,225.98078Z" transform="translate(-356 -103.84676)" fill="#6c63ff"/><path d="M698.93117,241.39523l-8.36774-8.60122-61.29186,34.51532s17.955,31.3627,25.02537,31.46c2.70978.03728,34.86645,1.61005,42.70306-8.78854C709.61078,273.24723,698.93117,241.39523,698.93117,241.39523Z" transform="translate(-356 -103.84676)" fill="#6c63ff"/><path d="M723.99882,139.88761a131.9476,131.9476,0,0,1,14.78674-1.466c3.58838-.15247,7.32672-.12821,10.5694,1.41606,4.88922,2.32843,7.6286,7.59193,9.42205,12.70169s3.06556,10.57041,6.39258,14.84325c5.53565-5.77823,6.64191-14.36872,7.46607-22.32814.57971-5.59838,1.0935-11.56786-1.49506-16.5656-1.59436-3.07822-4.22485-5.477-6.88934-7.6947-12.71967-10.5866-28.87451-18.9168-45.25171-16.539l-.38318,2.52845a45.15583,45.15583,0,0,0-8.35382.525l.58514,6.273-8.69909.55181-.33374,6.53769-8.79749.305a10.19306,10.19306,0,0,0,3.06879,6.62728,12.39189,12.39189,0,0,1-4.51862,2.041c1.467,5.679,2.89112,11.371,4.40662,17.03723,1.11645,4.174.917,7.86191,5.3941,5.82489,3.40882-1.551,5.71521-6.48311,9.1615-8.52087C714.59,141.585,719.39524,140.60775,723.99882,139.88761Z" transform="translate(-356 -103.84676)" fill="#2f2e41"/><path d="M832.33934,285.592l.48478,35.24308L822.67236,421.8432s5.47583,53.40231-11.07446,55.147c-29.552,3.11529-7.76954-58.48619-7.76954-58.48619l.479-59.582s3.15759-23.62152-2.28355-32.98655-9.23763-30.04518-9.23763-30.04518Z" transform="translate(-356 -103.84676)" fill="#ffb9b9"/><path d="M804.6063,230.98078h0a18.67814,18.67814,0,0,1,17.94978,13.4951c6.38632,22.12922,17.98488,63.77124,15.05021,64.5049-4,1-51,4-51,4Z" transform="translate(-356 -103.84676)" fill="#6c63ff"/><path d="M439.62571,400.64259l.24115.05822a21.33444,21.33444,0,0,1,3.27859,40.39908,21.00225,21.00225,0,0,1-5.08833,1.436,21.34077,21.34077,0,1,1,1.56859-41.89335Z" transform="translate(-356 -103.84676)" fill="#6c63ff"/><path d="M439.62571,400.64259a306.27742,306.27742,0,0,1,3.51974,40.4573,21.00225,21.00225,0,0,1-5.08833,1.436,222.04709,222.04709,0,0,0-3.70668-42.43177A21.30753,21.30753,0,0,1,439.62571,400.64259Z" transform="translate(-356 -103.84676)" fill="#e6e6e6"/><path d="M524.56253,405.09768l-73.20361,2.97092,2.06193,24.23171,72.75248-10.97276a4.99071,4.99071,0,0,0,4.27457-5.51429l-.09855-.85622,2.872-.11908a2.52094,2.52094,0,0,0,2.39056-2.87965l-.01759-.1216a2.521,2.521,0,0,0-2.76211-2.1459l-3.05154.32519-.05781-.5023A4.99072,4.99072,0,0,0,524.56253,405.09768Z" transform="translate(-356 -103.84676)" fill="#3f3d56"/><path d="M484.01382,419.36341a1.48742,1.48742,0,0,1-1.38507,1.13831l-5.25786.21789a1.49506,1.49506,0,0,1-1.52607-1.219l-.53279-2.90545a1.48864,1.48864,0,0,1,1.3066-1.74866l5.32-.567a1.48379,1.48379,0,0,1,1.63088,1.267l-.00024-.00005.47111,3.25492A1.49366,1.49366,0,0,1,484.01382,419.36341ZM476.29348,416.21a.49544.49544,0,0,0-.00538.20606l.533,2.90574a.49811.49811,0,0,0,.50851.40637l5.25786-.21789a.49633.49633,0,0,0,.47059-.567l-.47093-3.25464a.4942.4942,0,0,0-.54331-.42224l-5.32019.567a.48875.48875,0,0,0-.34468.19618A.49436.49436,0,0,0,476.29348,416.21Z" transform="translate(-356 -103.84676)" fill="#e6e6e6"/></svg>